HIERARCHY
ROOT Hips
{
    OFFSET 0.000000 0.000000 0.000000
    CHANNELS 6 Xposition Yposition Zposition Zrotation Xrotation Yrotation
    JOINT Spine
    {
        OFFSET -0.000000 14.517291 0.000000
        CHANNELS 3 Zrotation Xrotation Yrotation
        JOINT Spine1
        {
            OFFSET -0.000000 37.558300 0.000000
            CHANNELS 3 Zrotation Xrotation Yrotation
            JOINT Neck
            {
                OFFSET -0.000000 37.404057 3.400369
                CHANNELS 3 Zrotation Xrotation Yrotation
                JOINT Head
                {
                    OFFSET -0.000000 24.785618 -3.540803
                    CHANNELS 3 Zrotation Xrotation Yrotation
                    End Site
                    {
                        OFFSET -0.000000 35.408028 0.000000
                    }
                }
            }
            JOINT LeftShoulder
            {
                OFFSET 6.992933 33.973492 -0.192664
                CHANNELS 3 Zrotation Xrotation Yrotation
                JOINT LeftArm
                {
                    OFFSET 21.527611 0.000000 0.000000
                    CHANNELS 3 Zrotation Xrotation Yrotation
                    JOINT LeftForeArm
                    {
                        OFFSET 56.353916 0.000000 0.000000
                        CHANNELS 3 Zrotation Xrotation Yrotation
                        JOINT LeftHand
                        {
                            OFFSET 47.774071 0.000000 0.000000
                            CHANNELS 3 Zrotation Xrotation Yrotation
                            End Site
                            {
                                OFFSET 26.556021 0.000000 0.000000
                            }
                        }
                    }
                }
            }
            JOINT RightShoulder
            {
                OFFSET -7.065357 33.973492 -0.192664
                CHANNELS 3 Zrotation Xrotation Yrotation
                JOINT RightArm
                {
                    OFFSET -21.527611 0.000000 0.000000
                    CHANNELS 3 Zrotation Xrotation Yrotation
                    JOINT RightForeArm
                    {
                        OFFSET -56.353916 0.000000 0.000000
                        CHANNELS 3 Zrotation Xrotation Yrotation
                        JOINT RightHand
                        {
                            OFFSET -47.774071 0.000000 0.000000
                            CHANNELS 3 Zrotation Xrotation Yrotation
                            End Site
                            {
                                OFFSET -26.556021 0.000000 0.000000
                            }
                        }
                    }
                }
            }
        }
    }
    JOINT LeftUpLeg
    {
        OFFSET 17.704014 0.000000 0.000000
        CHANNELS 3 Zrotation Xrotation Yrotation
        JOINT LeftLeg
        {
            OFFSET -0.000000 -81.181816 0.000000
            CHANNELS 3 Zrotation Xrotation Yrotation
            JOINT LeftFoot
            {
                OFFSET -0.000000 -62.821102 0.000000
                CHANNELS 3 Zrotation Xrotation Yrotation
                JOINT LeftToeBase
                {
                    OFFSET -0.000000 -11.507608 26.556021
                    CHANNELS 3 Zrotation Xrotation Yrotation
                    End Site
                    {
                        OFFSET -0.000000 0.000000 7.081605
                    }
                }
            }
        }
    }
    JOINT RightUpLeg
    {
        OFFSET -17.704014 0.000000 0.000000
        CHANNELS 3 Zrotation Xrotation Yrotation
        JOINT RightLeg
        {
            OFFSET -0.000000 -81.181816 0.000000
            CHANNELS 3 Zrotation Xrotation Yrotation
            JOINT RightFoot
            {
                OFFSET -0.000000 -62.821102 0.000000
                CHANNELS 3 Zrotation Xrotation Yrotation
                JOINT RightToeBase
                {
                    OFFSET -0.000000 -11.507608 26.556021
                    CHANNELS 3 Zrotation Xrotation Yrotation
                    End Site
                    {
                        OFFSET -0.000000 0.000000 7.081605
                    }
                }
            }
        }
    }
}
MOTION
Frames:    4
Frame Time:    0.008333
-8.481276    151.712799    -14.070765    -0.226919    0.599348    22.331715    -1.610280    -0.253994    6.555177    -3.226767    2.307981    2.252052    -5.455512    -4.138641    -14.546288    18.305923    4.996263    -12.360127    7.817161    0.551933    -12.803315    -27.484137    17.389723    -72.678551    -18.635807    4.760307    -123.306328    3.894085    -29.954269    -5.782053    -12.562886    2.007095    6.805311    22.865044    -19.855364    56.694614    -6.375191    -20.406727    14.290628    11.911143    -15.391703    41.002922    1.261460    -33.972378    -27.205421    -10.112471    21.321331    -21.949312    -10.727756    4.195692    29.352764    0.000000    0.000000    0.000000    3.107568    11.283663    -13.576246    3.190104    24.235477    -0.904575    -3.244562    -31.429728    -6.425122    0.000000    0.000000    0.000000    
-8.478483    151.709991    -14.076365    -0.222088    0.602851    22.328066    -1.594635    -0.261325    6.553330    -3.249838    2.323689    2.252375    -5.439276    -4.158767    -14.544832    18.302683    5.011662    -12.363459    7.830236    0.546376    -12.797883    -27.495556    17.405449    -72.693634    -18.648031    4.713510    -123.256485    3.905805    -29.982391    -5.755479    -12.559545    1.991357    6.820725    22.850176    -19.845562    56.672508    -6.389610    -20.427786    14.276236    11.916991    -15.409761    41.007370    1.259043    -33.974762    -27.201376    -10.119145    21.316639    -21.938789    -10.726206    4.198883    29.351545    0.000000    0.000000    0.000000    3.096276    11.270460    -13.582142    3.189006    24.259542    -0.900004    -3.248610    -31.437351    -6.424296    0.000000    0.000000    0.000000    
-8.478691    151.705139    -14.074798    -0.213981    0.593616    22.327860    -1.597020    -0.248701    6.553718    -3.241303    2.320205    2.252180    -5.447613    -4.158105    -14.549829    18.311735    5.012234    -12.366384    7.823723    0.553804    -12.800656    -27.526871    17.411541    -72.700050    -18.680450    4.686494    -123.193031    3.940103    -30.021027    -5.726912    -12.567468    1.998559    6.825273    22.848728    -19.854572    56.669487    -6.395214    -20.435648    14.258818    11.912483    -15.421090    40.995647    1.255314    -33.963367    -27.172543    -10.113114    21.324806    -21.936808    -10.714310    4.193733    29.328348    0.000000    0.000000    0.000000    3.092625    11.278911    -13.579880    3.188785    24.270573    -0.878151    -3.266096    -31.446289    -6.453129    0.000000    0.000000    0.000000    
-8.477717    151.701340    -14.079226    -0.210872    0.595511    22.324160    -1.589097    -0.244969    6.554482    -3.251307    2.317006    2.252512    -5.424144    -4.171803    -14.546024    18.298910    5.019165    -12.368502    7.824094    0.552488    -12.789729    -27.547539    17.438354    -72.716072    -18.715303    4.622280    -123.134392    3.920600    -30.097944    -5.715299    -12.561995    1.990996    6.836602    22.845467    -19.856178    56.656822    -6.402897    -20.435556    14.252694    11.908715    -15.422151    40.992569    1.257478    -33.965199    -27.171110    -10.120291    21.318277    -21.928169    -10.731448    4.191154    29.331768    0.000000    0.000000    0.000000    3.086891    11.272989    -13.583209    3.184794    24.284105    -0.897615    -3.248532    -31.461622    -6.422609    0.000000    0.000000    0.000000    
